<svg height="480pt" viewBox="0 0 480 480" width="480pt" xmlns="http://www.w3.org/2000/svg"><path d="m480 0h-272v176h64v64l64-64h144zm0 0" fill="#f0d365"/><path d="m240 480v-32c0-44.183594-35.816406-80-80-80h-80c-44.183594 0-80 35.816406-80 80v32" fill="#c16b3f"/><path d="m136 368h-56c-44.183594 0-80 35.816406-80 80v32h216v-32c0-44.183594-35.816406-80-80-80zm0 0" fill="#e39854"/><path d="m80 368v8c0 22.089844 17.910156 40 40 40s40-17.910156 40-40v-8" fill="#efbe9a"/><path d="m64 320h-16c-13.257812 0-24-10.742188-24-24s10.742188-24 24-24h16" fill="#db9b7c"/><path d="m176 272h16c13.257812 0 24 10.742188 24 24s-10.742188 24-24 24h-16" fill="#efbe9a"/><path d="m184 232v72c0 35.34375-28.65625 64-64 64s-64-28.65625-64-64v-72" fill="#db9b7c"/><path d="m108 366.839844c29.609375-5.625 52-31.601563 52-62.839844v-72h-104v72c0 31.238281 22.390625 57.214844 52 62.839844zm0 0" fill="#efbe9a"/><path d="m136 216v8c0 26.511719-21.488281 48-48 48h-48v-40c0-30.929688 25.070312-56 56-56h48c30.929688 0 56 25.070312 56 56v40h-40c-13.257812 0-24-10.742188-24-24zm0 0" fill="#2d4d83"/><path d="m175.496094 185.703125c-8.976563-6.117187-19.816406-9.703125-31.496094-9.703125h-48c-30.929688 0-56 25.070312-56 56v40h48c26.511719 0 48-21.488281 48-48v24c0 8.296875 4.207031 15.609375 10.609375 19.921875 18.09375-18.195313 29.390625-43.664063 29.390625-71.921875 0-3.480469-.175781-6.910156-.503906-10.296875zm0 0" fill="#4472b2"/><g fill="#d1a339"><path d="m226.34375 50.34375 32-32.003906 11.3125 11.316406-32 32zm0 0"/><path d="m266.34375 50.34375 32-32.003906 11.3125 11.316406-32 32zm0 0"/><path d="m378.339844 146.34375 32.003906-32.003906 11.3125 11.316406-32 32zm0 0"/><path d="m418.339844 146.34375 32.003906-32 11.3125 11.3125-32 32zm0 0"/><path d="m288 80h16v16h-16zm0 0"/><path d="m320 80h16v16h-16zm0 0"/><path d="m352 80h16v16h-16zm0 0"/><path d="m384 80h16v16h-16zm0 0"/></g></svg>