<!--?xml version="1.0" encoding="utf-8"?-->
<!-- Generator: Adobe Illustrator 18.1.1, SVG Export Plug-In . SVG Version: 6.00 Build 0)  -->

<svg version="1.1" id="_x32_" xmlns="http://www.w3.org/2000/svg" xmlns:xlink="http://www.w3.org/1999/xlink" x="0px" y="0px" viewBox="0 0 512 512" style="width: 256px; height: 256px; opacity: 1;" xml:space="preserve">
<style type="text/css">
	.st0{fill:#4B4B4B;}
</style>
<g>
	<path class="st0" d="M486.892,218.046c-19.899-63.282-46.42-152.51-63.338-175.494c-27.455-37.28-79.181-19.797-118.757-11.88
		c-34.956,7-133.61,55.411-177.16,55.411v199.282c52.847,0,94.803,79.745,145.519,116.387c27.344,19.751,50.234,65.18,59.254,80.514
		c15.186,25.835,60.763-1.51,54.689-39.502c-6.074-37.984-34.938-63.8-39.502-71.384c-4.556-7.622-24.308-28.864-24.308-41.012
		c0-10.649,7.584-17.307,47.086-17.307c49.133,0,82.876,0,92.561,0C502.522,313.061,537.377,266.548,486.892,218.046z" style="fill: rgb(75, 75, 75);"></path>
	<path class="st0" d="M60.781,76.629H38.752C17.344,76.629,0,93.982,0,115.391v173.206c0,21.399,17.344,38.771,38.752,38.771h47.873
		V102.464C86.625,88.184,75.051,76.629,60.781,76.629z" style="fill: rgb(75, 75, 75);"></path>
</g>
</svg>
